<?xml version="1.0" encoding="utf-8" ?>
<svg xmlns="http://www.w3.org/2000/svg" xmlns:xlink="http://www.w3.org/1999/xlink" xmlns:svgjs="http://svgjs.com/svgjs" version="1.1" width="128.000000pt" height="128.000000pt">
  <svg xmlns="http://www.w3.org/2000/svg" version="1.0" width="128.000000pt" height="128.000000pt" viewBox="0 0 128.000000 128.000000" preserveAspectRatio="xMidYMid meet">
    <g transform="translate(0.000000,128.000000) scale(0.100000,-0.100000)" fill="#000000" stroke="none">
      <path d="M300 1120 c-21 -21 -26 -45 -11 -54 4 -3 13 6 19 19 l12 25 320 0 320 0 12 -25 c6 -13 15 -22 19 -19 15 9 10 33 -11 54 -19 19 -33 20 -340 20 -307 0 -321 -1 -340 -20z"/>
      <path d="M218 986 c-20 -14 -40 -61 -31 -70 12 -12 23 -6 23 12 0 41 7 42 433 42 l409 0 11 -30 c14 -36 27 -39 27 -5 0 13 -10 33 -22 45 -21 19 -33 20 -427 20 -317 -1 -410 -3 -423 -14z"/>
      <path d="M142 845 c-18 -8 -37 -26 -42 -40 -6 -15 -10 -148 -10 -315 l0 -289 24 -28 24 -28 502 0 502 0 24 28 24 28 0 289 c0 167 -4 300 -10 315 -20 53 -38 55 -542 55 -377 -1 -469 -3 -496 -15z m1000 -32 c17 -15 18 -38 18 -311 0 -261 -2 -298 -17 -314 -15 -17 -44 -18 -504 -18 -430 0 -489 2 -503 16 -14 13 -16 56 -16 311 0 262 2 299 17 315 15 17 44 18 501 18 438 0 487 -2 504 -17z"/>
      <path d="M227 713 c-4 -3 -7 -100 -7 -215 l0 -208 113 0 112 0 88 105 c57 67 86 109 81 117 -4 7 -46 57 -92 111 l-84 97 -102 0 c-57 0 -106 -3 -109 -7z"/>
      <path d="M511 703 c7 -10 39 -47 70 -83 60 -70 79 -99 79 -124 0 -9 -36 -59 -80 -111 l-80 -95 94 0 93 0 76 89 c115 136 114 113 16 227 -46 55 -88 102 -94 106 -5 4 -50 8 -99 8 -83 0 -88 -1 -75 -17z"/>
      <path d="M750 714 c0 -3 34 -47 75 -96 52 -63 75 -98 75 -116 0 -19 -23 -54 -75 -115 -41 -49 -75 -90 -75 -93 0 -2 40 -4 89 -4 l90 0 86 100 c48 55 85 107 83 115 -2 8 -41 60 -88 115 l-84 100 -88 0 c-49 0 -88 -3 -88 -6z"/>
    </g>
  </svg>
  <style>@media (prefers-color-scheme: light) { :root { filter: none; } }
</style>
</svg>
